<svg id="レイヤー_1" data-name="レイヤー 1" xmlns="http://www.w3.org/2000/svg" xmlns:xlink="http://www.w3.org/1999/xlink" viewBox="0 0 24 24"><defs><linearGradient id="名称未設定グラデーション_3" x1="-1307.41" y1="-1626.1" x2="-1307.41" y2="-1626.88" gradientTransform="translate(6078.6 7562) scale(4.64)" gradientUnits="userSpaceOnUse"><stop offset="0.39" stop-color="#d1d3d4" stop-opacity="0"/><stop offset="1" stop-color="#d1d3d4"/></linearGradient><linearGradient id="名称未設定グラデーション_3-2" x1="-1306.44" y1="-1626.49" x2="-1306.44" y2="-1627.3" xlink:href="#名称未設定グラデーション_3"/><linearGradient id="名称未設定グラデーション_4" x1="-1307.87" y1="-1625.76" x2="-1306.01" y2="-1625.76" gradientTransform="translate(6078.6 7562) scale(4.64)" gradientUnits="userSpaceOnUse"><stop offset="0" stop-color="#e8e7e5"/><stop offset="1" stop-color="#fff"/></linearGradient><linearGradient id="名称未設定グラデーション_4-2" x1="-1307.96" y1="-1627.1" x2="-1305.94" y2="-1627.1" xlink:href="#名称未設定グラデーション_4"/></defs><path d="M.1-.3h24v24H.1Z" style="fill:none"/><path d="M18.2,20.5l-6.1,1.7L6,20.5,4.6,5.3h15Z" style="fill:#2062af"/><path d="M12.1,6.6V20.9h0L17,19.5,18.2,6.6Z" style="fill:#3c9cd7"/><path d="M8.7,3.1V2.2H10v-1H7.7V4H10V3.1Zm3.6-.9h1v-1H11v1l.9.9H11V4h2.3V3.1l-1-.9Zm3.3,0h.9v-1H14.2v1l.9.9h-.9V4h2.3V3.1l-.9-.9Z"/><path d="M12.1,10.4,7.7,12.2,7.9,14l4.2-1.8,4.5-1.9V8.4l-4.6,2Z" style="fill:#fff"/><path d="M7.7,12.2,7.9,14l4.2-1.8V10.4Z" style="fill:url(#名称未設定グラデーション_3)"/><path d="M16.7,8.4l-4.6,2v1.8l4.5-1.9Z" style="fill:url(#名称未設定グラデーション_3-2)"/><path d="M7.8,12.2V14h6.4v2.4l-2.1.6L10,16.5V15H8l.3,2.8L12.1,19l3.8-1.1.5-5.7Z" style="fill:url(#名称未設定グラデーション_4)"/><path d="M12.1,12.2H7.7L7.9,14h4.2V12.2Zm0,4.8h0L10,16.5V15H8l.3,2.8L12.1,19Z" style="opacity:0.05000000074505806;isolation:isolate"/><path d="M7.4,8.4h9.3v1.9h-9L7.4,8.4Z" style="fill:url(#名称未設定グラデーション_4-2)"/><path d="M12.1,8.4H7.4l.2,1.9h4.5V8.4Z" style="opacity:0.05000000074505806;isolation:isolate"/></svg>