<svg id="レイヤー_1" data-name="レイヤー 1" xmlns="http://www.w3.org/2000/svg" viewBox="0 0 24 24"><path d="M12,.3A12,12,0,0,0,8.2,23.7a.6.6,0,0,0,.8-.6v-2c-3.3.7-4-1.6-4-1.6a3.6,3.6,0,0,0-1.4-1.8c-1.1-.7.1-.7.1-.7a2.8,2.8,0,0,1,1.9,1.2,2.5,2.5,0,0,0,3.4,1,3.4,3.4,0,0,1,.8-1.6c-2.7-.3-5.5-1.3-5.5-5.9A4.9,4.9,0,0,1,5.6,8.4a4,4,0,0,1,.1-3.1S6.7,5,9,6.5a10.3,10.3,0,0,1,3-.4,10.3,10.3,0,0,1,3,.4c2.3-1.5,3.3-1.2,3.3-1.2a4,4,0,0,1,.1,3.1,4.9,4.9,0,0,1,1.3,3.3c0,4.6-2.9,5.6-5.5,5.9a3,3,0,0,1,.8,2.2v3.3a.6.6,0,0,0,.8.6A12,12,0,0,0,12,.3Z" style="fill:#191313;fill-rule:evenodd"/></svg>