<svg width="20" height="20" viewBox="0 0 20 20" fill="none" xmlns="http://www.w3.org/2000/svg">
<g clip-path="url(#clip0)">
<path fill-rule="evenodd" clip-rule="evenodd" d="M9.8 0.440491C4.38896 0.440491 0 4.82945 0 10.2405C0 14.5693 2.82577 18.2368 6.67362 19.5595C7.1546 19.6196 7.33497 19.319 7.33497 19.0785C7.33497 18.838 7.33497 18.2368 7.33497 17.3951C4.62945 17.9963 4.02822 16.0724 4.02822 16.0724C3.60736 14.9301 2.94601 14.6294 2.94601 14.6294C2.04417 14.0282 3.00614 14.0282 3.00614 14.0282C3.9681 14.0883 4.5092 15.0503 4.5092 15.0503C5.41104 16.5534 6.79387 16.1325 7.33497 15.892C7.39509 15.2307 7.69571 14.8098 7.9362 14.5693C5.77178 14.3288 3.48712 13.4871 3.48712 9.69939C3.48712 8.61718 3.84785 7.77546 4.5092 7.05399C4.44908 6.87362 4.08834 5.85153 4.62945 4.52883C4.62945 4.52883 5.47117 4.28834 7.33497 5.55092C8.11656 5.31043 8.95828 5.25031 9.8 5.25031C10.6417 5.25031 11.4834 5.37055 12.265 5.55092C14.1288 4.28834 14.9706 4.52883 14.9706 4.52883C15.5117 5.85153 15.1509 6.87362 15.0908 7.11411C15.692 7.77546 16.1129 8.6773 16.1129 9.75951C16.1129 13.5472 13.8282 14.3288 11.6638 14.5693C12.0245 14.8699 12.3252 15.4712 12.3252 16.373C12.3252 17.6957 12.3252 18.7178 12.3252 19.0785C12.3252 19.319 12.5055 19.6196 12.9865 19.5595C16.8945 18.2368 19.6601 14.5693 19.6601 10.2405C19.6 4.82945 15.211 0.440491 9.8 0.440491Z" fill="#1A1414"/>
</g>
<defs>
<clipPath id="clip0">
<rect y="0.440491" width="19.6" height="19.119" fill="white"/>
</clipPath>
</defs>
</svg>
