<svg id="レイヤー_1" data-name="レイヤー 1" xmlns="http://www.w3.org/2000/svg" viewBox="0 0 24 24"><path d="M0,0H24V24H0Z" style="fill:#f7df1e"/><path d="M6.3,20.1l1.8-1.2c.4.7.7,1.2,1.5,1.2s1.2-.3,1.2-1.4V11h2.3v7.7a3.1,3.1,0,0,1-3.4,3.4,3.5,3.5,0,0,1-3.4-2"/><path d="M14.3,19.8l1.8-1a2.6,2.6,0,0,0,2.2,1.3c1,0,1.6-.4,1.6-1.1s-.6-1-1.7-1.5l-.5-.2C16,16.6,15,15.7,15,13.9a3,3,0,0,1,3.3-3,3.4,3.4,0,0,1,3.2,1.8l-1.8,1.1a1.4,1.4,0,0,0-1.4-.9c-.7,0-1.1.4-1.1.9s.4,1,1.4,1.4l.5.2c2,.9,3,1.7,3,3.6s-1.6,3.1-3.7,3.1a4.3,4.3,0,0,1-4.1-2.3"/></svg>