<svg id="レイヤー_1" data-name="レイヤー 1" xmlns="http://www.w3.org/2000/svg" xmlns:xlink="http://www.w3.org/1999/xlink" viewBox="0 0 24 24"><defs><linearGradient id="linear-gradient" x1="9.79" y1="9.03" x2="7.72" y2="13.24" gradientUnits="userSpaceOnUse"><stop offset="0" stop-color="#3f873f"/><stop offset="0.33" stop-color="#3f8b3d"/><stop offset="0.64" stop-color="#3e9637"/><stop offset="0.93" stop-color="#3da92e"/><stop offset="1" stop-color="#3dae2b"/></linearGradient><clipPath id="clip-path"><path d="M9,8H8.7L6.4,9.4c-.1,0-.1.1-.1.2v2.6a.4.4,0,0,0,.1.3l2.3,1.3H9l2.3-1.3a.4.4,0,0,0,.1-.3V9.6c0-.1,0-.2-.1-.2Z" style="fill:url(#linear-gradient);clip-rule:evenodd"/></clipPath><linearGradient id="linear-gradient-3" x1="8.51" y1="11.23" x2="14.3" y2="6.95" gradientUnits="userSpaceOnUse"><stop offset="0.14" stop-color="#3f873f"/><stop offset="0.4" stop-color="#529f44"/><stop offset="0.71" stop-color="#63b649"/><stop offset="0.91" stop-color="#6abf4b"/></linearGradient><linearGradient id="linear-gradient-4" x1="6.22" y1="7.57" x2="11.5" y2="7.57" gradientUnits="userSpaceOnUse"><stop offset="0.09" stop-color="#6abf4b"/><stop offset="0.29" stop-color="#63b649"/><stop offset="0.6" stop-color="#529f44"/><stop offset="0.86" stop-color="#3f873f"/></linearGradient><linearGradient id="linear-gradient-5" x1="6.22" y1="10.92" x2="11.5" y2="10.92" xlink:href="#linear-gradient-4"/><linearGradient id="linear-gradient-6" x1="6.22" y1="12.43" x2="11.5" y2="12.43" xlink:href="#linear-gradient-4"/><linearGradient id="linear-gradient-7" x1="6.22" y1="13.11" x2="11.5" y2="13.11" xlink:href="#linear-gradient-4"/><linearGradient id="linear-gradient-8" x1="12.27" y1="8.9" x2="9.01" y2="15.55" xlink:href="#linear-gradient"/></defs><path d="M11.9,19.3h-.3l-.7-.4c-.1-.1,0-.1,0-.1l.3-.2h.1l.5.4h.1l2.2-1.3h0V15.1h0l-2.2-1.3h-.1L9.7,15.1H9.6v2.5h.1l.6.3c.3.2.5,0,.5-.2V15.4h.4v2.4a.6.6,0,0,1-.7.7H10L9.5,18c-.2,0-.3-.2-.3-.4V15.1a.5.5,0,0,1,.3-.4l2.1-1.2h.5l2.2,1.2.2.4v2.5c0,.2-.1.4-.2.4l-2.2,1.3Z" style="fill:#679e63"/><path d="M12.5,17.6c-.9,0-1.1-.4-1.1-.8h.4c0,.3.2.4.7.4s.7-.1.7-.3-.1-.2-.8-.3-.9-.2-.9-.7.3-.7.9-.7,1.1.3,1.1.8h-.4c0-.3-.2-.4-.7-.4s-.5.2-.5.3.1.2.7.3,1,.2,1,.7S13.2,17.6,12.5,17.6Z" style="fill:#679e63"/><path d="M15.7,15a.5.5,0,0,1-.5.4.4.4,0,1,1,0-.8A.5.5,0,0,1,15.7,15Zm-.8,0c0,.2.1.4.3.4a.4.4,0,0,0,.4-.4c0-.2-.2-.3-.4-.3A.3.3,0,0,0,14.9,15Zm.2-.2h.1v.2h-.1Zm.1.2h0Z" style="fill:#679e63"/><path d="M5.2,9.6,5,9.3,2.7,8H2.4L.1,9.3v3.8H.1c0,.1.1.1.1,0l1.4-.7a.4.4,0,0,0,.1-.3V10.6l.2-.3.5-.3h.3l.6.3a.4.4,0,0,1,.1.3v1.6c0,.1.1.2.2.3l1.3.7c.1.1.1.1.2,0h0Z" style="fill:#333;fill-rule:evenodd"/><path d="M16.2,4.7c0-.1-.1-.1-.1,0H16V8.3h-.1l-.6-.3H15L12.7,9.4c-.1,0-.1.1-.1.2v2.7c0,.1,0,.2.1.2L15,13.9h.3l2.3-1.4c.1,0,.1-.1.1-.2V5.7a.4.4,0,0,0-.1-.3ZM16,11.4h0l-.8.4h-.1l-.8-.4h0v-.9h0l.8-.4h.1l.8.4h0Z" style="fill:#333;fill-rule:evenodd"/><path d="M23.9,10.5c0-.1.1-.2.1-.3V9.4L21.6,8h-.3L19,9.4c-.1,0-.1.1-.1.2v2.9l2.3,1.3h.3l1.3-.8h0l-2.3-1.3v-1h0l.7-.4h.2l.7.4h.1v.7h.2Z" style="fill:#333;fill-rule:evenodd"/><path d="M21.4,10.4h.1l.4.2h0v.5h0l-.4.3h-.1l-.4-.3h-.1v-.5H21Z" style="fill:#679e63;fill-rule:evenodd"/><path d="M9,8H8.7L6.4,9.4c-.1,0-.1.1-.1.2v2.6a.4.4,0,0,0,.1.3l2.3,1.3H9l2.3-1.3a.4.4,0,0,0,.1-.3V9.6c0-.1,0-.2-.1-.2Z" style="fill-rule:evenodd;fill:url(#linear-gradient)"/><g style="clip-path:url(#clip-path)"><path d="M8.7,8,6.4,9.4c-.1,0-.1.1-.1.2v2.8L8.9,8Z" style="fill:none"/><path d="M8.9,13.8H9l2.3-1.3a.4.4,0,0,0,.1-.3V9.4Z" style="fill:none"/><path d="M11.3,9.4,9,8H8.9L6.3,12.4h.1l2.3,1.3h.2l2.4-4.4Z" style="fill:url(#linear-gradient-3)"/><path d="M11.4,12.2V9.6c0-.1,0-.2-.1-.2L9,8H8.9l2.5,4.3Z" style="fill:none"/><path d="M6.4,9.4c-.1,0-.1.1-.1.2v2.6a.4.4,0,0,0,.1.3l2.3,1.3h.2L6.4,9.4Z" style="fill:none"/><polygon points="8.6 7.6 8.6 7.6 8.7 7.6 8.6 7.6" style="fill:url(#linear-gradient-4)"/><path d="M11.3,12.5v-.2L8.9,8H8.7L6.4,9.4l2.5,4.4H9Z" style="fill:url(#linear-gradient-5)"/><polygon points="11.5 12.4 11.5 12.4 11.5 12.4 11.5 12.4" style="fill:url(#linear-gradient-6)"/><path d="M11.3,12.5,9,13.8H8.9l2.6-1.4h-.1Z" style="fill:url(#linear-gradient-7)"/><path d="M11.3,12.5,9,13.8H8.9l2.6-1.4h-.1Z" style="fill:url(#linear-gradient-8)"/></g></svg>