<svg id="レイヤー_1" data-name="レイヤー 1" xmlns="http://www.w3.org/2000/svg" viewBox="0 0 24 24"><path d="M13.7,8l-.8,1.4L10.1,4.5l-8.7,15H7.3a1.4,1.4,0,0,0,1.4,1.4H1.4a1.4,1.4,0,0,1-1.2-.7,1.2,1.2,0,0,1,0-1.4l8.6-15a1.7,1.7,0,0,1,1.3-.7,1.5,1.5,0,0,1,1.2.7Z" style="fill:#00c58e"/><path d="M19.9,18.8,14.5,9.4,13.7,8l-.8,1.4L7.5,18.8a1.2,1.2,0,0,0,0,1.4,1.4,1.4,0,0,0,1.2.7h10a1.4,1.4,0,0,0,1.2-.7,1.2,1.2,0,0,0,0-1.4Zm-11.2.7,5-8.7,5,8.7Z" style="fill:#2f495e"/><path d="M23.8,20.2a1.4,1.4,0,0,1-1.2.7H18.7a1.4,1.4,0,0,0,1.4-1.4h2.5l-7-12L14.5,9.4,13.7,8l.7-1.2A1.4,1.4,0,0,1,15.6,6a1.6,1.6,0,0,1,1.3.8l6.9,12A1.2,1.2,0,0,1,23.8,20.2Z" style="fill:#108775"/></svg>