<svg id="レイヤー_1" data-name="レイヤー 1" xmlns="http://www.w3.org/2000/svg" viewBox="0 0 24 24"><path d="M0,12c0,1.8,1.8,3.5,4.6,4.4-.6,2.8-.1,5.1,1.4,6s3.9.2,6.1-1.7c2.2,1.9,4.4,2.6,5.9,1.7s2-3.3,1.5-6.2c2.9-1,4.5-2.4,4.5-4.2s-1.8-3.3-4.5-4.3c.6-3,.1-5.2-1.5-6.1s-3.8-.1-6,1.8C9.8,1.3,7.6.7,6,1.6S4,4.8,4.6,7.7C1.9,8.6,0,10.2,0,12Z" style="fill:#fff"/><path d="M18.9,8.7l-.7-.3V8c.5-2.6.2-4.6-1-5.3s-2.9.1-4.7,1.7l-.6.5-.3-.4c-1.9-1.7-3.9-2.4-5-1.7s-1.5,2.5-1,4.9a1.4,1.4,0,0,0,.2.7l-.8.3c-2.3.8-3.7,2-3.7,3.3s1.5,2.6,3.9,3.4l.5.2c0,.3-.1.5-.1.8-.5,2.3-.1,4.2,1,4.8s3,0,4.9-1.6l.5-.5.5.6c1.9,1.5,3.6,2.2,4.7,1.5s1.6-2.6,1.1-5.1a1.1,1.1,0,0,1-.1-.5l.3-.2c2.5-.8,4.1-2.1,4.1-3.4s-1.5-2.6-3.8-3.3Z" style="fill:#53c1de"/><path d="M18.4,14.6H18A15.3,15.3,0,0,0,16.9,12c.4-.9.8-1.8,1.1-2.7l.6.2c2,.7,3.2,1.7,3.2,2.5s-1.3,1.9-3.4,2.6Zm-.9,1.7a9,9,0,0,1,.1,2.8c-.1.7-.4,1.2-.7,1.3s-2.1-.1-3.7-1.4l-.5-.5a23.1,23.1,0,0,0,1.8-2.3l2.9-.4c0,.2.1.3.1.5ZM8.6,20.4a1.9,1.9,0,0,1-1.5,0c-.6-.4-.9-1.9-.5-3.9,0-.2.1-.4.1-.7a13.5,13.5,0,0,0,2.9.4,23.1,23.1,0,0,0,1.8,2.3c-.1.1-.2.3-.4.4a7.9,7.9,0,0,1-2.4,1.5Zm-3-5.8a8.2,8.2,0,0,1-2.5-1.4A1.6,1.6,0,0,1,2.3,12c0-.8,1.1-1.8,3.1-2.5l.7-.2c.3.9.6,1.8,1,2.7s-.7,1.8-1,2.7Zm1-7.1c-.4-2-.1-3.5.5-3.9s2.3.1,4,1.6l.3.3A23.1,23.1,0,0,0,9.6,7.8a13.5,13.5,0,0,0-2.9.4c0-.2-.1-.4-.1-.7Zm9.2,2.3-.7-1.1,2,.4a13.4,13.4,0,0,1-.7,1.8l-.6-1.1ZM12,6.2a6.4,6.4,0,0,1,1.3,1.5,10.4,10.4,0,0,0-2.5,0A9.8,9.8,0,0,1,12,6.2ZM8.3,9.8l-.6,1.1A13.4,13.4,0,0,1,7,9.1l1.9-.4Zm.6,5.5L7,14.9a13.4,13.4,0,0,1,.7-1.8l.6,1.1Zm3.2,2.5a6.4,6.4,0,0,1-1.3-1.5h2.5ZM16.4,13c.3.7.5,1.3.7,1.9a12,12,0,0,1-2,.3,6.1,6.1,0,0,0,.7-1l.6-1.2Zm-1.4.7-1,1.7H10.1l-1-1.7L8.1,12,9,10.3H9l1.1-1.7H14l1,1.7.9,1.7L15,13.7ZM16.9,3.5c.7.4,1,2.1.5,4.3a.6.6,0,0,1-.1.4l-2.8-.4a23.1,23.1,0,0,0-1.8-2.3l.5-.4c1.5-1.4,3-2,3.7-1.6Z" style="fill:#fff"/><path d="M12,10.1A1.8,1.8,0,0,1,13.9,12,1.9,1.9,0,0,1,12,13.9,2,2,0,0,1,10.1,12,1.9,1.9,0,0,1,12,10.1" style="fill:#53c1de"/></svg>