<svg id="レイヤー_1" data-name="レイヤー 1" xmlns="http://www.w3.org/2000/svg" viewBox="0 0 24 24"><path d="M12,0A12,12,0,1,1,0,12,12,12,0,0,1,12,0Z" style="fill:#ce6195;fill-rule:evenodd"/><path d="M9.6,16a2.8,2.8,0,0,1,0,1.8c0,.1-.1.1-.1.2a.1.1,0,0,1-.1.1,4.1,4.1,0,0,1-.5.9,2.3,2.3,0,0,1-2.1.8c-.4-.3-.2-1.4.6-2.2a9.2,9.2,0,0,1,2.1-1.5h0a.1.1,0,0,1,.1-.1ZM19.5,5.1C19,3,15.4,2.3,12.1,3.5A16.4,16.4,0,0,0,6.4,6.8c-1.8,1.7-2.1,3.2-2,3.8.4,2.2,3.5,3.7,4.7,4.7h0c-.4.2-3.1,1.6-3.7,3s.1,2.5.6,2.6a3.7,3.7,0,0,0,4.1-1.6,4.2,4.2,0,0,0,.4-3.7,5.1,5.1,0,0,1,1.8-.1c2.1.3,2.6,1.6,2.5,2.1a1.4,1.4,0,0,1-.7,1c-.1.1-.2.1-.2.2h.2a1.6,1.6,0,0,0,1.2-1.4,3,3,0,0,0-3.4-2.7l-1.9.2H9.9c-1.3-1.4-3.8-2.4-3.7-4.4S6.5,7.9,11,5.6s6.7-1.3,7.2-.2-1.6,4.6-5.4,5a3,3,0,0,1-2.5-.6L10,9.6c-.1.1,0,.3,0,.4a2.4,2.4,0,0,0,1.4,1.1,7.8,7.8,0,0,0,4.5-.5c2.3-.9,4.2-3.4,3.6-5.5Z" style="fill:#fff"/></svg>