<svg id="レイヤー_1" data-name="レイヤー 1" xmlns="http://www.w3.org/2000/svg" viewBox="0 0 24 24"><path d="M0,12V24H24V0H0Zm19.3-1a3.2,3.2,0,0,1,1.5.9,1.8,1.8,0,0,1,.6.8l-1.7,1.1-.2-.2a1.2,1.2,0,0,0-1.1-.7,1,1,0,0,0-1.2,1,.6.6,0,0,0,.1.4c.2.3.5.5,1.4.9s2.5,1.3,2.9,2a3.6,3.6,0,0,1,.3,2.9A3.2,3.2,0,0,1,19.2,22a10.8,10.8,0,0,1-1.8,0A4.3,4.3,0,0,1,15,20.7l-.7-.9.3-.2.9-.5.6-.4.2.2a2.6,2.6,0,0,0,.9.9,2.3,2.3,0,0,0,2.3-.1c.3-.2.3-.4.3-.7a1.1,1.1,0,0,0-.1-.6c-.2-.3-.6-.5-1.7-1A5.2,5.2,0,0,1,15.8,16a2.9,2.9,0,0,1-.7-1.2,3.8,3.8,0,0,1,0-1.5A2.8,2.8,0,0,1,17.5,11Zm-5.6,1v1H10.6v8.9H8.4V13H5.3V11.1h8.4Z" style="fill:#007acc"/></svg>